<?xml version="1.0" encoding="iso-8859-1"?>
<!-- Uploaded to: SVG Repo, www.svgrepo.com, Generator: SVG Repo Mixer Tools -->
<svg fill="#000000" height="800px" width="800px" version="1.1" id="Capa_1" xmlns="http://www.w3.org/2000/svg" xmlns:xlink="http://www.w3.org/1999/xlink" 
	 viewBox="0 0 60 60" xml:space="preserve">
<path d="M56,18h-5H31v-2h20h5c0.553,0,1-0.447,1-1s-0.447-1-1-1h-5c-3.34,0-5.437-1.138-7.865-2.455
	C40.232,9.97,36.956,8.198,31,8.018V6c0.266,0,0.52-0.105,0.707-0.293l1-1C32.895,4.52,33,4.266,33,4V2
	c0-0.266-0.105-0.52-0.293-0.707l-1-1C31.52,0.105,31.266,0,31,0h-2c-0.266,0-0.52,0.105-0.707,0.293l-1,1
	C27.105,1.48,27,1.734,27,2v2c0,0.266,0.105,0.52,0.293,0.707l1,1C28.48,5.895,28.734,6,29,6v2.018
	c-5.944,0.18-9.205,1.947-12.095,3.519C14.475,12.858,12.375,14,9,14H4c-0.553,0-1,0.447-1,1s0.447,1,1,1h5h20v2H9H4
	c-0.553,0-1,0.447-1,1s0.447,1,1,1h5c3.34,0,5.437,1.138,7.865,2.455c2.903,1.575,6.179,3.347,12.135,3.527v20.604L17.293,58.293
	c-0.391,0.391-0.391,1.023,0,1.414C17.488,59.902,17.744,60,18,60s0.512-0.098,0.707-0.293L29,49.414V59c0,0.553,0.447,1,1,1
	s1-0.447,1-1v-9.586l10.293,10.293C41.488,59.902,41.744,60,42,60s0.512-0.098,0.707-0.293c0.391-0.391,0.391-1.023,0-1.414
	L31,46.586V25.982c5.944-0.18,9.205-1.947,12.095-3.519C45.525,21.142,47.625,20,51,20h5c0.553,0,1-0.447,1-1S56.553,18,56,18z"/>
</svg>